<?xml version="1.0" encoding="UTF-8" standalone="no"?>
<svg
   viewBox="0 0 1600 120"
   width="1600"
   height="120"
   version="1.1"
   id="svg6"
   xmlns="http://www.w3.org/2000/svg"
   xmlns:svg="http://www.w3.org/2000/svg">
  <defs
     id="defs10" />
  <rect
     width="1600"
     height="120"
     fill="white"
     id="rect2" />
  <g
     aria-label="Agent-native Electronic Layout Markup"
     id="text4"
     style="font-style:italic;font-size:72px;font-family:'TeX Gyre Schola';dominant-baseline:middle;text-anchor:middle">
    <path
       d="m 198.94416,76.92 0.36,-3.384 h -1.8 c -3.96,0 -4.752,-0.648 -5.472,-4.392 l -9,-45.288 h -2.952 l -23.76,40.968 c -3.816,6.336 -6.768,8.712 -10.656,8.712 l -0.36,3.384 h 19.368 l 0.432,-3.384 h -1.728 c -3.744,0 -4.968,-0.72 -4.968,-2.88 0,-1.08 0.432,-2.52 1.296,-3.96 l 3.96,-6.912 h 18.36 l 1.656,8.856 c 0.144,0.864 0.288,1.8 0.288,2.304 0,2.088 -0.576,2.592 -4.68,2.592 h -1.656 l -0.36,3.384 z m -17.496,-20.52 h -15.84 l 11.736,-20.664 z"
       id="path12" />
    <path
       d="m 231.70415,79.8 c 0,-2.808 -1.368,-5.184 -3.744,-6.48 -2.304,-1.224 -4.608,-1.728 -9.504,-2.016 -6.336,-0.36 -6.912,-0.432 -7.92,-0.648 -1.728,-0.432 -2.664,-1.296 -2.664,-2.52 0,-1.656 1.8,-2.88 4.32,-2.88 0.936,0 1.944,0.072 2.952,0.216 2.952,0.432 3.384,0.504 5.184,0.504 4.032,0 7.2,-1.008 9.72,-3.024 2.808,-2.232 4.68,-5.904 4.68,-9.144 0,-3.312 -1.44,-5.976 -4.248,-7.992 1.152,-1.008 1.8,-1.368 2.664,-1.368 0.72,0 1.296,0.36 1.872,1.152 1.152,1.584 1.584,1.872 2.736,1.872 1.584,0 2.88,-1.368 2.88,-3.168 0,-2.016 -2.016,-3.744 -4.536,-3.744 -2.52,0 -4.464,0.936 -8.208,3.888 -2.304,-1.008 -3.888,-1.368 -6.192,-1.368 -7.92,0 -14.76,5.688 -14.76,12.312 0,3.456 1.368,5.832 4.464,7.488 -3.312,0.432 -4.824,0.936 -6.48,2.376 -1.44,1.152 -2.376,3.096 -2.376,4.824 0,2.448 1.152,3.96 3.96,5.328 -3.024,0.648 -4.176,1.08 -5.688,2.016 -2.16,1.296 -3.528,3.6 -3.528,5.976 0,2.016 1.008,4.032 2.592,5.256 2.88,2.016 6.192,2.808 12.168,2.808 7.128,0 11.232,-0.864 14.76,-3.168 3.096,-2.016 4.896,-5.112 4.896,-8.496 z m -3.384,-28.224 c 0,3.384 -1.152,7.056 -2.952,9.288 -1.296,1.512 -3.312,2.448 -5.544,2.448 -3.888,0 -6.336,-2.448 -6.336,-6.48 0,-6.48 3.528,-11.016 8.712,-11.016 3.744,0 6.12,2.232 6.12,5.76 z m -2.16,30.312 c 0,4.248 -4.608,6.552 -12.816,6.552 -6.912,0 -10.224,-1.8 -10.224,-5.544 0,-3.888 3.816,-6.192 10.296,-6.192 3.24,0 8.424,0.72 10.08,1.44 1.8,0.72 2.664,1.944 2.664,3.744 z"
       id="path14" />
    <path
       d="m 265.61615,70.512 -1.728,-1.944 c -4.248,4.392 -7.416,6.048 -11.16,6.048 -4.32,0 -6.984,-2.88 -6.984,-7.488 0,-0.504 0.072,-1.512 0.144,-2.448 8.424,-2.016 9.864,-2.448 13.104,-3.888 5.544,-2.448 8.64,-6.12 8.64,-10.296 0,-4.392 -3.528,-7.416 -8.568,-7.416 -10.512,0 -20.016,10.728 -20.016,22.464 0,7.776 4.68,12.456 12.456,12.456 5.544,0 10.224,-2.448 14.112,-7.488 z m -4.032,-20.448 c 0,3.96 -2.808,7.344 -7.992,9.648 -2.088,0.936 -3.312,1.296 -7.344,2.16 1.656,-9.72 6.048,-15.912 11.376,-15.912 2.376,0 3.96,1.656 3.96,4.104 z"
       id="path16" />
    <path
       d="m 311.91217,67.2 -2.088,-1.512 c -3.6,5.688 -6.696,8.64 -8.928,8.64 -0.72,0 -1.296,-0.576 -1.296,-1.368 0,-0.792 0.216,-1.656 1.368,-4.824 l 3.384,-9.936 c 1.152,-3.24 1.728,-6.048 1.728,-8.136 0,-3.816 -3.096,-6.984 -6.912,-6.984 -4.248,0 -8.496,3.096 -13.32,9.72 l 2.088,-9.72 -13.032,1.08 -0.288,2.592 h 1.728 c 2.952,0 4.104,0.648 4.104,2.232 0,0.648 -0.216,1.584 -0.648,3.168 l -7.344,24.768 h 6.264 l 2.952,-10.008 c 1.872,-6.264 2.736,-8.28 5.328,-12.096 3.096,-4.608 6.912,-7.416 10.008,-7.416 1.656,0 2.88,1.296 2.88,2.952 0,1.224 -0.36,2.808 -1.08,5.04 l -3.816,11.232 c -0.936,2.808 -1.296,4.464 -1.296,6.048 0,3.024 2.16,5.328 5.04,5.328 4.536,0 9.144,-3.816 13.176,-10.8 z"
       id="path18" />
    <path
       d="m 335.96017,66.84 -2.16,-1.44 c -4.464,6.768 -6.552,8.784 -8.928,8.784 -1.008,0 -1.656,-0.792 -1.656,-2.016 0,-0.576 0.072,-1.08 0.216,-1.656 l 6.84,-22.968 h 7.848 l 1.008,-3.384 h -7.848 l 3.528,-11.952 h -6.264 l -3.528,11.952 h -6.768 l -1.008,3.384 h 6.768 l -5.4,18.144 c -1.008,3.6 -1.368,5.256 -1.368,6.84 0,3.024 2.304,5.472 5.184,5.472 3.384,0 7.416,-2.232 9.936,-5.616 1.008,-1.368 1.728,-2.52 3.6,-5.544 z"
       id="path20" />
    <path
       d="m 357.84812,62.88 1.584,-5.976 h -14.76 l -1.584,5.976 z"
       id="path22" />
    <path
       d="m 405.22413,67.2 -2.088,-1.512 c -3.6,5.688 -6.696,8.64 -8.928,8.64 -0.72,0 -1.296,-0.576 -1.296,-1.368 0,-0.792 0.216,-1.656 1.368,-4.824 l 3.384,-9.936 c 1.152,-3.24 1.728,-6.048 1.728,-8.136 0,-3.816 -3.096,-6.984 -6.912,-6.984 -4.248,0 -8.496,3.096 -13.32,9.72 l 2.088,-9.72 -13.032,1.08 -0.288,2.592 h 1.728 c 2.952,0 4.104,0.648 4.104,2.232 0,0.648 -0.216,1.584 -0.648,3.168 l -7.344,24.768 h 6.264 l 2.952,-10.008 c 1.872,-6.264 2.736,-8.28 5.328,-12.096 3.096,-4.608 6.912,-7.416 10.008,-7.416 1.656,0 2.88,1.296 2.88,2.952 0,1.224 -0.36,2.808 -1.08,5.04 l -3.816,11.232 c -0.936,2.808 -1.296,4.464 -1.296,6.048 0,3.024 2.16,5.328 5.04,5.328 4.536,0 9.144,-3.816 13.176,-10.8 z"
       id="path24" />
    <path
       d="m 446.40814,66.768 -2.232,-1.224 c -2.736,5.472 -5.256,8.496 -7.128,8.496 -0.792,0 -1.512,-0.792 -1.512,-1.8 0,-0.72 0.288,-2.088 0.792,-3.888 l 7.2,-24.192 h -6.264 l -1.944,6.48 c -0.504,-4.464 -4.104,-7.56 -8.784,-7.56 -4.392,0 -8.496,2.304 -11.88,6.624 -3.672,4.752 -5.832,10.8 -5.832,16.56 0,7.056 4.248,11.736 10.656,11.736 4.464,0 7.344,-1.8 10.944,-6.984 -0.288,1.08 -0.36,1.584 -0.36,2.304 0,2.808 1.8,4.68 4.392,4.68 3.168,0 5.904,-1.728 8.424,-5.256 1.44,-2.016 2.664,-4.032 3.528,-5.976 z m -16.848,1.08 c -2.232,4.464 -4.824,6.48 -8.424,6.48 -3.6,0 -5.76,-2.664 -5.76,-7.056 0,-6.336 2.808,-13.824 6.624,-17.712 1.584,-1.656 3.6,-2.52 5.76,-2.52 3.384,0 5.472,2.448 5.472,6.408 0,4.104 -1.44,9.864 -3.672,14.4 z"
       id="path26" />
    <path
       d="m 470.60011,66.84 -2.16,-1.44 c -4.464,6.768 -6.552,8.784 -8.928,8.784 -1.008,0 -1.656,-0.792 -1.656,-2.016 0,-0.576 0.072,-1.08 0.216,-1.656 l 6.84,-22.968 h 7.848 l 1.008,-3.384 h -7.848 l 3.528,-11.952 h -6.264 l -3.528,11.952 h -6.768 l -1.008,3.384 h 6.768 l -5.4,18.144 c -1.008,3.6 -1.368,5.256 -1.368,6.84 0,3.024 2.304,5.472 5.184,5.472 3.384,0 7.416,-2.232 9.936,-5.616 1.008,-1.368 1.728,-2.52 3.6,-5.544 z"
       id="path28" />
    <path
       d="m 495.72804,66.84 -2.232,-1.224 c -3.6,5.544 -6.768,8.712 -8.712,8.712 -0.72,0 -1.224,-0.648 -1.224,-1.512 0,-0.72 0.288,-2.016 0.864,-4.032 l 7.632,-25.704 -13.824,1.08 -0.288,2.592 h 1.728 c 2.952,0 4.104,0.648 4.104,2.232 0,0.648 -0.216,1.584 -0.648,3.168 l -4.176,14.04 c -1.296,4.536 -1.584,5.688 -1.584,7.272 0,2.52 2.16,4.464 4.968,4.464 3.096,0 6.048,-1.656 8.928,-4.968 1.296,-1.44 2.448,-3.024 4.464,-6.12 z M 494.86404,33 c 0,-1.944 -1.584,-3.528 -3.528,-3.528 -1.944,0 -3.528,1.584 -3.528,3.528 0,1.944 1.584,3.528 3.528,3.528 1.944,0 3.528,-1.584 3.528,-3.528 z"
       id="path30" />
    <path
       d="m 531.44005,48.768 c 0,-3.168 -1.944,-5.688 -4.464,-5.688 -1.8,0 -3.24,1.656 -3.24,3.6 0,1.152 0.432,2.088 1.512,3.312 1.728,1.944 2.016,2.52 2.016,4.104 0,2.448 -1.296,6.912 -3.168,10.728 -2.808,5.832 -6.84,9.432 -10.584,9.432 -2.664,0 -4.752,-2.448 -4.752,-5.616 0,-2.304 0.432,-4.608 1.728,-8.928 l 4.896,-16.632 -13.32,1.08 -0.216,2.592 h 1.224 c 2.808,0 4.104,0.648 4.104,2.088 0,0.504 -0.288,2.016 -0.72,3.312 l -2.448,8.28 c -0.864,2.952 -1.368,5.976 -1.368,8.208 0,5.328 3.96,9.432 9.144,9.432 5.04,0 9.504,-3.168 13.392,-9.36 3.6,-5.832 6.264,-14.328 6.264,-19.944 z"
       id="path32" />
    <path
       d="m 561.46397,70.512 -1.728,-1.944 c -4.248,4.392 -7.416,6.048 -11.16,6.048 -4.32,0 -6.984,-2.88 -6.984,-7.488 0,-0.504 0.072,-1.512 0.144,-2.448 8.424,-2.016 9.864,-2.448 13.104,-3.888 5.544,-2.448 8.64,-6.12 8.64,-10.296 0,-4.392 -3.528,-7.416 -8.568,-7.416 -10.512,0 -20.016,10.728 -20.016,22.464 0,7.776 4.68,12.456 12.456,12.456 5.544,0 10.224,-2.448 14.112,-7.488 z m -4.032,-20.448 c 0,3.96 -2.808,7.344 -7.992,9.648 -2.088,0.936 -3.312,1.296 -7.344,2.16 1.656,-9.72 6.048,-15.912 11.376,-15.912 2.376,0 3.96,1.656 3.96,4.104 z"
       id="path34" />
    <path
       d="m 633.53598,59.28 -2.952,-0.576 -0.36,0.576 c -6.336,11.592 -10.944,14.256 -20.808,14.256 h -3.888 c -3.744,0 -5.04,-0.576 -5.04,-2.304 0,-0.864 0.072,-1.224 0.792,-3.96 l 4.248,-15.84 h 2.304 c 5.328,0 7.272,2.16 7.272,6.552 0,1.584 -0.144,2.664 -0.648,4.968 l 3.24,0.576 6.408,-24.048 -3.24,-0.432 c -2.088,6.336 -5.112,9 -12.096,9 h -2.376 l 3.96,-14.76 c 1.224,-4.608 1.8,-4.968 7.2,-4.968 h 4.176 c 6.12,0 10.008,2.232 10.008,11.448 v 2.52 h 3.24 l 2.808,-17.352 h -42.048 l -0.432,3.384 h 1.872 c 4.68,0 5.688,0.36 5.688,1.944 0,0.576 -0.288,2.088 -0.648,3.528 l -9.216,34.272 c -1.008,3.816 -1.08,3.888 -1.656,4.464 -0.792,0.72 -1.44,1.008 -4.968,1.008 h -1.368 l -0.36,3.384 h 43.272 z"
       id="path36" />
    <path
       d="m 658.59199,66.84 -2.232,-1.224 c -3.6,5.544 -6.84,8.712 -8.856,8.712 -0.792,0 -1.296,-0.648 -1.296,-1.512 0,-0.792 0,-0.864 0.936,-3.96 l 13.32,-45 -14.328,1.08 -0.288,2.592 h 2.232 c 2.952,0 4.104,0.648 4.104,2.232 0,0.72 -0.216,1.728 -0.648,3.168 l -9.144,30.888 c -1.728,5.76 -1.944,6.912 -1.944,9.144 0,3.096 1.8,5.04 4.68,5.04 4.536,0 9.144,-3.816 13.464,-11.16 z"
       id="path38" />
    <path
       d="m 689.408,70.512 -1.728,-1.944 c -4.248,4.392 -7.416,6.048 -11.16,6.048 -4.32,0 -6.984,-2.88 -6.984,-7.488 0,-0.504 0.072,-1.512 0.144,-2.448 8.424,-2.016 9.864,-2.448 13.104,-3.888 5.544,-2.448 8.64,-6.12 8.64,-10.296 0,-4.392 -3.528,-7.416 -8.568,-7.416 -10.512,0 -20.016,10.728 -20.016,22.464 0,7.776 4.68,12.456 12.456,12.456 5.544,0 10.224,-2.448 14.112,-7.488 z m -4.032,-20.448 c 0,3.96 -2.808,7.344 -7.992,9.648 -2.088,0.936 -3.312,1.296 -7.344,2.16 1.656,-9.72 6.048,-15.912 11.376,-15.912 2.376,0 3.96,1.656 3.96,4.104 z"
       id="path40" />
    <path
       d="m 721.88002,69 -2.088,-1.584 c -3.6,4.68 -7.416,7.128 -10.872,7.128 -4.248,0 -6.696,-3.168 -6.696,-8.568 0,-5.112 1.656,-10.8 4.464,-14.832 2.52,-3.6 5.112,-5.328 8.28,-5.328 2.304,0 4.608,1.152 4.608,2.376 0,0.432 -0.36,0.792 -1.152,1.08 -1.944,0.864 -2.664,1.728 -2.664,3.456 0,2.088 1.584,3.528 3.816,3.528 2.592,0 4.536,-2.304 4.536,-5.4 0,-4.32 -4.176,-7.776 -9.36,-7.776 -10.08,0 -19.152,10.368 -19.152,21.888 0,7.92 4.896,13.032 12.384,13.032 5.4,0 10.08,-3.024 13.896,-9 z"
       id="path42" />
    <path
       d="m 747.72804,66.84 -2.16,-1.44 c -4.464,6.768 -6.552,8.784 -8.928,8.784 -1.008,0 -1.656,-0.792 -1.656,-2.016 0,-0.576 0.072,-1.08 0.216,-1.656 l 6.84,-22.968 h 7.848 l 1.008,-3.384 h -7.848 l 3.528,-11.952 h -6.264 l -3.528,11.952 h -6.768 l -1.008,3.384 h 6.768 l -5.4,18.144 c -1.008,3.6 -1.368,5.256 -1.368,6.84 0,3.024 2.304,5.472 5.184,5.472 3.384,0 7.416,-2.232 9.936,-5.616 1.008,-1.368 1.728,-2.52 3.6,-5.544 z"
       id="path44" />
    <path
       d="m 783.72797,48.408 c 0,-3.096 -2.376,-5.328 -5.688,-5.328 -4.032,0 -7.2,2.448 -11.016,8.352 l 1.656,-8.352 -13.032,1.08 -0.288,2.592 h 1.728 c 2.88,0 4.176,0.648 4.176,2.016 0,0.504 -0.36,2.088 -0.72,3.384 l -7.344,24.768 h 6.264 l 3.384,-11.376 c 2.664,-9 8.64,-18.072 11.952,-18.072 0.864,0 1.296,0.576 1.296,1.656 0,1.656 0,1.872 0.288,2.304 0.576,1.008 1.728,1.584 3.096,1.584 2.448,0 4.248,-1.944 4.248,-4.608 z"
       id="path46" />
    <path
       d="m 816.19996,56.688 c 0,-7.488 -5.76,-13.608 -12.744,-13.608 -4.68,0 -9.36,2.16 -13.248,6.192 -3.96,4.104 -6.048,9.288 -6.048,15.264 0,8.208 4.968,13.464 12.816,13.464 5.184,0 9.648,-2.016 13.104,-5.904 3.816,-4.32 6.12,-10.08 6.12,-15.408 z m -10.224,11.448 c -2.448,4.968 -5.112,7.128 -8.928,7.128 -4.176,0 -6.408,-2.664 -6.408,-7.56 0,-5.976 2.448,-14.04 5.4,-18 2.016,-2.592 4.32,-3.888 7.056,-3.888 3.96,0 6.264,3.312 6.264,8.856 0,3.744 -1.44,9.504 -3.384,13.464 z"
       id="path48" />
    <path
       d="m 860.26396,67.2 -2.088,-1.512 c -3.6,5.688 -6.696,8.64 -8.928,8.64 -0.72,0 -1.296,-0.576 -1.296,-1.368 0,-0.792 0.216,-1.656 1.368,-4.824 l 3.384,-9.936 c 1.152,-3.24 1.728,-6.048 1.728,-8.136 0,-3.816 -3.096,-6.984 -6.912,-6.984 -4.248,0 -8.496,3.096 -13.32,9.72 l 2.088,-9.72 -13.032,1.08 -0.288,2.592 h 1.728 c 2.952,0 4.104,0.648 4.104,2.232 0,0.648 -0.216,1.584 -0.648,3.168 l -7.344,24.768 h 6.264 l 2.952,-10.008 c 1.872,-6.264 2.736,-8.28 5.328,-12.096 3.096,-4.608 6.912,-7.416 10.008,-7.416 1.656,0 2.88,1.296 2.88,2.952 0,1.224 -0.36,2.808 -1.08,5.04 l -3.816,11.232 c -0.936,2.808 -1.296,4.464 -1.296,6.048 0,3.024 2.16,5.328 5.04,5.328 4.536,0 9.144,-3.816 13.176,-10.8 z"
       id="path50" />
    <path
       d="m 884.09596,66.84 -2.232,-1.224 c -3.6,5.544 -6.768,8.712 -8.712,8.712 -0.72,0 -1.224,-0.648 -1.224,-1.512 0,-0.72 0.288,-2.016 0.864,-4.032 l 7.632,-25.704 -13.824,1.08 -0.288,2.592 h 1.728 c 2.952,0 4.104,0.648 4.104,2.232 0,0.648 -0.216,1.584 -0.648,3.168 l -4.176,14.04 c -1.296,4.536 -1.584,5.688 -1.584,7.272 0,2.52 2.16,4.464 4.968,4.464 3.096,0 6.048,-1.656 8.928,-4.968 1.296,-1.44 2.448,-3.024 4.464,-6.12 z M 883.23196,33 c 0,-1.944 -1.584,-3.528 -3.528,-3.528 -1.944,0 -3.528,1.584 -3.528,3.528 0,1.944 1.584,3.528 3.528,3.528 1.944,0 3.528,-1.584 3.528,-3.528 z"
       id="path52" />
    <path
       d="m 914.40797,69 -2.088,-1.584 c -3.6,4.68 -7.416,7.128 -10.872,7.128 -4.248,0 -6.696,-3.168 -6.696,-8.568 0,-5.112 1.656,-10.8 4.464,-14.832 2.52,-3.6 5.112,-5.328 8.28,-5.328 2.304,0 4.608,1.152 4.608,2.376 0,0.432 -0.36,0.792 -1.152,1.08 -1.944,0.864 -2.664,1.728 -2.664,3.456 0,2.088 1.584,3.528 3.816,3.528 2.592,0 4.536,-2.304 4.536,-5.4 0,-4.32 -4.176,-7.776 -9.36,-7.776 -10.08,0 -19.152,10.368 -19.152,21.888 0,7.92 4.896,13.032 12.384,13.032 5.4,0 10.08,-3.024 13.896,-9 z"
       id="path54" />
    <path
       d="m 985.11198,59.28 -2.952,-0.576 c -6.336,11.592 -10.944,14.832 -21.168,14.832 h -3.024 c -3.744,0 -5.04,-0.576 -5.04,-2.304 0,-0.936 0.072,-1.296 0.792,-3.96 l 9,-33.48 c 1.008,-3.888 1.008,-3.888 1.656,-4.464 0.72,-0.72 2.448,-1.008 5.976,-1.008 h 1.584 l 0.432,-3.384 h -24.192 l -0.432,3.384 h 1.872 c 4.68,0 5.688,0.36 5.688,1.944 0,0.576 -0.288,2.088 -0.648,3.528 l -9.216,34.272 c -1.008,3.816 -1.08,3.888 -1.656,4.464 -0.792,0.72 -1.44,1.008 -4.968,1.008 h -1.368 l -0.36,3.384 h 42.408 z"
       id="path56" />
    <path
       d="m 1025.432,66.768 -2.232,-1.224 c -2.736,5.472 -5.256,8.496 -7.128,8.496 -0.792,0 -1.512,-0.792 -1.512,-1.8 0,-0.72 0.288,-2.088 0.792,-3.888 l 7.2,-24.192 h -6.264 l -1.944,6.48 c -0.504,-4.464 -4.104,-7.56 -8.784,-7.56 -4.392,0 -8.49603,2.304 -11.88003,6.624 -3.672,4.752 -5.832,10.8 -5.832,16.56 0,7.056 4.248,11.736 10.656,11.736 4.46403,0 7.34403,-1.8 10.94403,-6.984 -0.288,1.08 -0.36,1.584 -0.36,2.304 0,2.808 1.8,4.68 4.392,4.68 3.168,0 5.904,-1.728 8.424,-5.256 1.44,-2.016 2.664,-4.032 3.528,-5.976 z m -16.848,1.08 c -2.232,4.464 -4.824,6.48 -8.424,6.48 -3.60003,0 -5.76003,-2.664 -5.76003,-7.056 0,-6.336 2.808,-13.824 6.62403,-17.712 1.584,-1.656 3.6,-2.52 5.76,-2.52 3.384,0 5.472,2.448 5.472,6.408 0,4.104 -1.44,9.864 -3.672,14.4 z"
       id="path58" />
    <path
       d="m 1059.272,46.824 c 0,-2.232 -1.296,-3.744 -3.24,-3.744 -1.944,0 -3.528,1.656 -3.528,3.6 0,0.36 0.072,0.792 0.144,1.224 0.432,2.448 0.432,2.664 0.432,3.744 0,3.6 -2.808,10.368 -7.488,17.784 l -3.168,-15.192 c -1.656,-7.848 -3.672,-11.16 -6.768,-11.16 -3.168,0 -6.408,3.96 -9.36,11.736 l 2.232,1.008 c 2.664,-5.76 3.456,-6.912 4.68,-6.912 1.008,0 1.944,1.512 2.736,4.608 2.232,8.208 3.528,14.256 5.112,23.328 -2.376,3.744 -2.88,4.464 -4.104,6.048 -2.88,3.528 -5.688,5.544 -7.632,5.544 -0.864,0 -1.368,-0.432 -1.368,-1.152 0,-2.232 0,-2.232 -0.216,-2.808 -0.504,-1.368 -1.728,-2.232 -3.096,-2.232 -2.088,0 -3.744,1.728 -3.744,3.888 0,2.952 2.88,5.328 6.624,5.328 4.176,0 8.064,-2.448 12.312,-7.776 3.384,-4.32 9.072,-13.824 14.472,-24.336 4.104,-7.92 4.968,-10.152 4.968,-12.528 z"
       id="path60" />
    <path
       d="m 1093.184,56.688 c 0,-7.488 -5.76,-13.608 -12.744,-13.608 -4.68,0 -9.36,2.16 -13.248,6.192 -3.96,4.104 -6.048,9.288 -6.048,15.264 0,8.208 4.968,13.464 12.816,13.464 5.184,0 9.648,-2.016 13.104,-5.904 3.816,-4.32 6.12,-10.08 6.12,-15.408 z m -10.224,11.448 c -2.448,4.968 -5.112,7.128 -8.928,7.128 -4.176,0 -6.408,-2.664 -6.408,-7.56 0,-5.976 2.448,-14.04 5.4,-18 2.016,-2.592 4.32,-3.888 7.056,-3.888 3.96,0 6.264,3.312 6.264,8.856 0,3.744 -1.44,9.504 -3.384,13.464 z"
       id="path62" />
    <path
       d="m 1136.816,67.2 -2.16,-1.296 c -3.528,5.184 -6.408,8.136 -7.848,8.136 -0.72,0 -1.368,-0.792 -1.368,-1.728 0,-0.792 0.288,-2.16 0.864,-4.248 l 7.128,-23.904 h -6.264 l -3.384,11.52 c -2.952,10.008 -9.576,18.216 -14.688,18.216 -1.728,0 -3.096,-1.368 -3.096,-3.096 0,-0.864 0.216,-2.16 0.792,-4.104 l 7.056,-23.616 -13.896,1.08 -0.216,2.592 h 1.728 c 2.952,0 4.032,0.648 4.032,2.304 0,0.648 -0.216,1.8 -0.576,3.096 l -2.88,9.72 c -2.232,7.2 -2.232,7.2 -2.232,9.432 0,3.96 2.808,6.624 6.84,6.624 5.04,0 9.144,-2.952 13.392,-9.576 -0.72,2.52 -0.864,3.528 -0.864,4.896 0,2.736 1.944,4.752 4.608,4.752 4.392,0 7.92,-2.88 13.032,-10.8 z"
       id="path64" />
    <path
       d="m 1161.296,66.84 -2.16,-1.44 c -4.464,6.768 -6.552,8.784 -8.928,8.784 -1.008,0 -1.656,-0.792 -1.656,-2.016 0,-0.576 0.072,-1.08 0.216,-1.656 l 6.84,-22.968 h 7.848 l 1.008,-3.384 h -7.848 l 3.528,-11.952 h -6.264 l -3.528,11.952 h -6.768 l -1.008,3.384 h 6.768 l -5.4,18.144 c -1.008,3.6 -1.368,5.256 -1.368,6.84 0,3.024 2.304,5.472 5.184,5.472 3.384,0 7.416,-2.232 9.936,-5.616 1.008,-1.368 1.728,-2.52 3.6,-5.544 z"
       id="path66" />
    <path
       d="m 1245.1039,76.92 0.432,-3.384 h -1.872 c -4.68,0 -5.688,-0.36 -5.688,-1.944 0,-0.504 0.288,-2.088 0.72,-3.528 l 9.144,-34.272 c 1.08,-3.96 1.08,-3.96 1.656,-4.464 0.792,-0.72 1.728,-1.008 5.328,-1.008 h 1.008 l 0.36,-3.384 h -15.552 l -24.552,38.88 -3.816,-38.88 h -17.424 l -0.36,3.384 h 1.872 c 4.68,0 5.688,0.36 5.688,1.944 0,0.576 -0.288,1.872 -0.72,3.528 l -7.344,27.504 c -2.736,10.224 -4.176,12.096 -9.36,12.24 l -0.36,3.384 h 18 l 0.36,-3.384 c -4.32,0 -6.408,-1.296 -6.408,-3.96 0,-1.584 0.072,-1.872 1.656,-8.28 l 7.416,-27.72 4.464,43.344 h 2.592 l 27.792,-44.352 -9.504,35.496 c -1.08,3.888 -1.08,3.888 -1.656,4.464 -0.792,0.72 -1.584,1.008 -5.112,1.008 h -1.224 l -0.36,3.384 z"
       id="path68" />
    <path
       d="m 1291.7599,66.768 -2.232,-1.224 c -2.736,5.472 -5.256,8.496 -7.128,8.496 -0.792,0 -1.512,-0.792 -1.512,-1.8 0,-0.72 0.288,-2.088 0.792,-3.888 l 7.2,-24.192 h -6.264 l -1.944,6.48 c -0.504,-4.464 -4.104,-7.56 -8.784,-7.56 -4.392,0 -8.496,2.304 -11.88,6.624 -3.672,4.752 -5.832,10.8 -5.832,16.56 0,7.056 4.248,11.736 10.656,11.736 4.464,0 7.344,-1.8 10.944,-6.984 -0.288,1.08 -0.36,1.584 -0.36,2.304 0,2.808 1.8,4.68 4.392,4.68 3.168,0 5.904,-1.728 8.424,-5.256 1.44,-2.016 2.664,-4.032 3.528,-5.976 z m -16.848,1.08 c -2.232,4.464 -4.824,6.48 -8.424,6.48 -3.6,0 -5.76,-2.664 -5.76,-7.056 0,-6.336 2.808,-13.824 6.624,-17.712 1.584,-1.656 3.6,-2.52 5.76,-2.52 3.384,0 5.472,2.448 5.472,6.408 0,4.104 -1.44,9.864 -3.672,14.4 z"
       id="path70" />
    <path
       d="m 1326.6079,48.408 c 0,-3.096 -2.376,-5.328 -5.688,-5.328 -4.032,0 -7.2,2.448 -11.016,8.352 l 1.656,-8.352 -13.032,1.08 -0.288,2.592 h 1.728 c 2.88,0 4.176,0.648 4.176,2.016 0,0.504 -0.36,2.088 -0.72,3.384 l -7.344,24.768 h 6.264 l 3.384,-11.376 c 2.664,-9 8.64,-18.072 11.952,-18.072 0.864,0 1.296,0.576 1.296,1.656 0,1.656 0,1.872 0.288,2.304 0.576,1.008 1.728,1.584 3.096,1.584 2.448,0 4.248,-1.944 4.248,-4.608 z"
       id="path72" />
    <path
       d="m 1360.6639,67.272 -2.232,-1.44 c -4.104,6.336 -5.76,8.136 -7.488,8.136 -1.008,0 -1.296,-0.648 -1.512,-3.528 -0.36,-5.04 -1.152,-6.912 -3.456,-8.784 8.496,-3.024 13.176,-7.2 13.176,-12.024 0,-3.672 -3.096,-6.552 -7.056,-6.552 -4.968,0 -9.288,3.312 -14.184,10.872 l 8.928,-30.096 -14.328,1.08 -0.288,2.592 h 2.232 c 2.952,0 4.104,0.648 4.104,2.232 0,0.72 -0.216,1.584 -0.648,3.168 l -13.032,43.992 h 6.264 l 2.736,-9.36 c 1.44,-4.824 4.176,-10.584 6.48,-13.536 3.168,-4.032 6.912,-6.624 9.648,-6.624 1.872,0 3.312,1.584 3.312,3.672 0,2.952 -2.088,5.256 -6.984,7.704 -1.584,0.792 -2.52,1.152 -3.024,1.152 0,0 -0.504,-0.072 -0.936,-0.216 -0.504,-0.216 -1.368,-0.36 -1.944,-0.36 -1.44,0 -2.232,0.72 -2.232,1.944 0,0.864 0.72,1.584 1.584,1.584 0,0 0.504,0 1.008,-0.072 1.296,-0.144 1.44,-0.144 1.44,-0.144 0.792,0 1.152,0.648 1.152,1.944 v 2.664 l -0.072,3.528 c 0,4.824 1.728,7.2 5.328,7.2 3.96,0 7.56,-3.24 12.024,-10.728 z"
       id="path74" />
    <path
       d="m 1403.5038,67.2 -2.16,-1.296 c -3.528,5.184 -6.408,8.136 -7.848,8.136 -0.72,0 -1.368,-0.792 -1.368,-1.728 0,-0.792 0.288,-2.16 0.864,-4.248 l 7.128,-23.904 h -6.264 l -3.384,11.52 c -2.952,10.008 -9.576,18.216 -14.688,18.216 -1.728,0 -3.096,-1.368 -3.096,-3.096 0,-0.864 0.216,-2.16 0.792,-4.104 l 7.056,-23.616 -13.896,1.08 -0.216,2.592 h 1.728 c 2.952,0 4.032,0.648 4.032,2.304 0,0.648 -0.216,1.8 -0.576,3.096 l -2.88,9.72 c -2.232,7.2 -2.232,7.2 -2.232,9.432 0,3.96 2.808,6.624 6.84,6.624 5.04,0 9.144,-2.952 13.392,-9.576 -0.72,2.52 -0.864,3.528 -0.864,4.896 0,2.736 1.944,4.752 4.608,4.752 4.392,0 7.92,-2.88 13.032,-10.8 z"
       id="path76" />
    <path
       d="m 1443.8959,54.816 c 0,-3.528 -0.72,-5.904 -2.376,-7.992 -1.872,-2.304 -4.752,-3.744 -7.56,-3.744 -3.672,0 -7.488,2.16 -10.728,6.12 l 1.08,-6.12 -13.104,1.08 -0.288,2.592 h 1.728 c 2.952,0 4.104,0.648 4.104,2.232 0,0.72 -0.216,1.8 -0.648,3.168 l -9.216,31.248 c -1.44,5.184 -1.512,5.256 -6.408,5.472 l -0.288,2.592 h 17.28 l 0.288,-2.592 h -0.864 c -3.456,0 -4.608,-0.432 -4.608,-1.872 0,-0.576 0.288,-1.8 0.792,-3.6 l 3.528,-11.736 c 1.944,4.968 3.816,6.336 8.568,6.336 5.04,0 9.504,-2.232 12.96,-6.696 3.672,-4.608 5.76,-10.584 5.76,-16.488 z m -10.152,11.736 c -2.52,5.4 -5.4,7.848 -9.216,7.848 -3.528,0 -6.048,-2.808 -6.048,-6.624 0,-4.176 2.232,-11.088 4.968,-15.264 2.376,-3.6 5.4,-5.616 8.28,-5.616 3.24,0 5.4,2.52 5.4,6.336 0,3.96 -1.224,8.856 -3.384,13.32 z"
       id="path78" />
  </g>
</svg>
