<svg xmlns="http://www.w3.org/2000/svg" viewBox="34.0 34.0 432.0 432.0" width="500" height="500">
<defs>
  <clipPath id="cla_logo_icon"><path d="M 316.2,262.0 L 188.0,336.0 L 59.8,262.0 L 59.8,114.0 L 188.0,40.0 L 316.2,114.0 Z"/></clipPath>
  <clipPath id="clb_logo_icon"><path d="M 440.2,386.0 L 312.0,460.0 L 183.8,386.0 L 183.8,238.0 L 312.0,164.0 L 440.2,238.0 Z"/></clipPath>
  <clipPath id="ca1_logo_icon"><path d="M -700.0,-700.0 L 276.0,-700.0 L 276.0,312.0 L -700.0,312.0 Z"/></clipPath>
  <clipPath id="ca2_logo_icon"><path d="M -700.0,312.0 L 276.0,312.0 L 276.0,700.0 L -700.0,700.0 Z"/></clipPath>
  <clipPath id="ca3_logo_icon"><path d="M -345.8,635.7 L 1036.8,-164.7 L 686.1,-770.5 L -696.5,29.9 Z"/></clipPath>
  <clipPath id="ca4c_logo_icon"><path d="M -345.8,635.7 L 1036.8,-164.7 L 1387.5,441.1 L 4.9,1241.5 Z"/></clipPath>
  <clipPath id="ca4e_logo_icon"><path d="M -345.8,-11.7 L 1036.8,788.7 L 1387.5,182.9 L 4.9,-617.5 Z"/></clipPath>
  <clipPath id="ca5_logo_icon"><path d="M -345.8,-11.7 L 1036.8,788.7 L 686.1,1394.5 L -696.5,594.1 Z"/></clipPath>
  <clipPath id="cbr_logo_icon"><path d="M 244.0,-700.0 L 700.0,-700.0 L 700.0,700.0 L 244.0,700.0 Z"/></clipPath>
</defs>
<path fill="#165E83" d="M 316.2,262.0 L 188.0,336.0 L 59.8,262.0 L 59.8,114.0 L 188.0,40.0 L 316.2,114.0 Z"/>
<g clip-path="url(#cla_logo_icon)">
  <g transform="translate(19.00,19.00) scale(0.5720000000000001)">
    <path d="m 185.79995,354.2 c -9.6,-0.6 -15,-7.2 -15,-17.7 0,-6 1.5,-14.4 4.5,-25.2 l 8.7,-33.3 c 3,-10.5 3.9,-15.9 3.9,-20.1 0,-9.3 -4.8,-15.3 -15.6,-19.5 18,-4.8 25.8,-14.1 32.4,-37.5 l 10.5,-38.4 c 7.5,-28.5 15.3,-38.1 31.8,-39.9 l 2.4,-8.7 h -3 c -10.8,0 -23.4,3.3 -30.3,8.1 -9.3,6.3 -15,17.1 -20.4,36.9 l -9.6,35.4 c -6,26.1 -12.6,34.2 -32.1,39.9 l -2.1,8.4 c 9.9,3.3 14.7,9.6 14.7,18.6 0,5.7 -0.3,7.5 -3.9,20.7 l -6.9,26.4 c -3.9,13.8 -5.1,21 -5.1,28.5 0,16.5 9.9,26.1 26.4,26.1 h 6.3 z" fill="white"/>
    <path d="m 333.1,234.2 c -9.6,-2.7 -15,-9.6 -15,-18.6 0,-5.7 0.3,-7.5 3.9,-20.7 l 6.9,-26.4 c 3.6,-13.5 5.4,-23.1 5.4,-29.7 0,-15 -10.8,-24.9 -26.7,-24.9 h -6.3 l -2.4,8.7 c 9.3,0.6 15,7.2 15,17.4 0,6 -1.5,14.7 -4.5,25.5 l -9,33.3 c -2.7,10.2 -3.6,15.6 -3.6,20.1 0,9.3 4.8,15.3 15.3,19.5 -17.7,4.8 -25.8,14.1 -32.1,37.5 l -10.5,38.4 c -7.5,28.5 -15.3,38.1 -31.5,39.9 l -2.4,8.7 h 2.4 c 11.1,0 23.7,-3.3 30.3,-8.1 9.3,-6.3 15.3,-17.1 20.7,-36.9 l 9.3,-35.4 c 6.3,-26.1 13.2,-34.5 32.4,-39.9 z" fill="white"/>
  </g>
</g>
<g clip-path="url(#clb_logo_icon)">
  <g clip-path="url(#ca1_logo_icon)">
    <rect x="-700.0" y="-700.0" width="1400.0" height="1400.0" fill="#38A1DB"/>
  </g>
</g>
<g clip-path="url(#clb_logo_icon)">
  <g clip-path="url(#ca2_logo_icon)">
    <rect x="-700.0" y="-700.0" width="1400.0" height="1400.0" fill="#D0AF4C"/>
  </g>
</g>
<g clip-path="url(#clb_logo_icon)">
  <g clip-path="url(#cbr_logo_icon)">
    <g clip-path="url(#ca3_logo_icon)">
      <rect x="-700.0" y="-700.0" width="1400.0" height="1400.0" fill="#A0D8EF"/>
    </g>
  </g>
</g>
<g clip-path="url(#clb_logo_icon)">
  <g clip-path="url(#cbr_logo_icon)">
    <g clip-path="url(#ca4c_logo_icon)">
      <g clip-path="url(#ca4e_logo_icon)">
        <rect x="-700.0" y="-700.0" width="1400.0" height="1400.0" fill="#7EBEA5"/>
      </g>
    </g>
  </g>
</g>
<g clip-path="url(#clb_logo_icon)">
  <g clip-path="url(#cbr_logo_icon)">
    <g clip-path="url(#ca5_logo_icon)">
      <rect x="-700.0" y="-700.0" width="1400.0" height="1400.0" fill="#C85554"/>
    </g>
  </g>
</g>
<g clip-path="url(#clb_logo_icon)">
  <line x1="260.0" y1="186.0" x2="260.0" y2="438.0" stroke="white" stroke-width="32" stroke-linecap="butt"/>
  <line x1="260.0" y1="312.0" x2="188.0" y2="312.0" stroke="white" stroke-width="18" stroke-linecap="round"/>
  <line x1="260.0" y1="285.0" x2="431.0" y2="186.0" stroke="white" stroke-width="18" stroke-linecap="round"/>
  <line x1="260.0" y1="339.0" x2="431.0" y2="438.0" stroke="white" stroke-width="18" stroke-linecap="round"/>
</g>
</svg>