<svg xmlns="http://www.w3.org/2000/svg" viewBox="0 0 400 120" width="400" height="120">
  <rect width="400" height="120" fill="#1565C0"/>
  <g style="font-size:90px;font-family:'Dancing Script';fill:#ffffff">
    <path d="m 150.72505,70.92 c -4.41,6.48 -13.32,19.62 -18.9,19.62 -1.62,0 -2.43,-1.08 -2.43,-3.51 0,-8.73 10.08,-25.47 18.54,-25.47 3.24,0 4.41,2.34 4.41,5.04 0,0.99 -0.18,2.16 -0.45,3.15 2.61,0 4.41,-0.9 4.41,-3.87 0,-4.05 -3.51,-6.75 -8.19,-6.75 -11.7,0 -24.93,16.92 -24.93,27.63 0,5.04 2.88,7.47 6.66,7.47 4.41,0 8.37,-3.51 13.59,-10.44 -0.18,0.99 -0.27,1.89 -0.27,2.61 0,3.15 2.07,6.3 6.48,6.3 6.39,0 14.04,-6.66 17.82,-16.38 l -0.9,-0.9 c -5.4,9.54 -11.16,14.22 -14.4,14.22 -2.16,0 -3.06,-2.16 -3.06,-3.96 0,-4.32 5.22,-10.44 5.22,-12.51 0,-1.35 -2.52,-2.07 -3.6,-2.25 z"/>
    <path d="m 192.03508,63.09 c 0,-4.41 -2.79,-5.49 -5.58,-5.49 -10.62,0 -22.86,15.21 -22.86,25.92 0,5.85 3.69,10.44 10.98,10.44 8.91,0 18.27,-6.93 23.13,-17.73 l -1.08,-0.81 c -4.5,8.64 -12.51,15.93 -20.16,15.93 -5.58,0 -7.11,-3.87 -7.11,-7.56 0,-0.9 0.09,-2.07 0.36,-3.24 10.26,-0.99 22.32,-8.28 22.32,-17.46 z m -5.85,-2.7 c 1.53,0 1.89,0.72 1.89,2.07 0,7.74 -11.52,14.13 -17.91,16.38 2.43,-8.55 10.26,-18.45 16.02,-18.45 z"/>
    <path d="m 226.14505,31.86 c 0,-2.52 -1.08,-6.66 -2.97,-6.66 -6.12,0 -27.99,40.95 -27.99,58.23 0,5.31 2.07,9.27 7.2,9.27 6.48,0 12.15,-6.3 16.92,-16.56 l -1.35,-0.72 c -3.15,7.02 -8.19,14.4 -12.96,14.4 -2.61,0 -3.96,-2.25 -3.96,-6.93 0,-2.7 0.45,-5.85 1.17,-9.09 13.14,-10.89 23.94,-33.93 23.94,-41.94 z m -3.42,0.63 c 0.27,0 0.63,0.27 0.63,1.44 0,6.03 -9.9,26.28 -20.34,36.81 4.95,-17.37 17.28,-38.25 19.71,-38.25 z"/>
    <path d="m 239.555,91.98 c 1.17,-2.43 2.43,-5.49 4.32,-8.37 5.58,-8.55 8.82,-13.41 11.79,-13.41 1.35,0 2.61,0.9 2.61,3.24 0,3.51 -2.7,8.37 -2.7,12.78 0,3.6 1.8,6.57 6.03,6.57 7.2,0 12.69,-8.55 15.57,-16.11 l -1.08,-1.26 c -2.79,6.12 -7.11,14.22 -12.06,14.22 -2.07,0 -2.7,-1.44 -2.7,-3.06 0,-3.78 3.33,-10.26 3.33,-15.03 0,-3.06 -1.35,-5.76 -5.13,-5.76 -6.12,0 -11.16,7.02 -14.94,13.86 0.99,-2.43 2.79,-8.1 2.79,-12.69 0,-3.69 -1.17,-6.84 -4.86,-6.84 -6.48,0 -14.13,9.45 -18.99,17.1 1.35,-4.5 2.34,-8.64 2.34,-10.26 0,-1.44 -0.81,-2.34 -2.43,-2.34 -1.71,0 -3.42,1.08 -4.14,1.89 -0.09,7.92 -6.21,22.68 -6.21,24.03 0,0.9 3.15,1.89 4.86,1.89 4.41,-12.15 15.21,-26.37 20.43,-26.37 1.62,0 2.25,1.35 2.25,3.42 0,6.3 -5.67,19.08 -5.67,20.7 0,1.26 3.15,1.8 4.59,1.8 z"/>
  </g>
</svg>