<?xml version="1.0" encoding="UTF-8"?>
<svg xmlns="http://www.w3.org/2000/svg" viewBox="-7.54 -5 53.18 50.64" width="53.18mm" height="50.64mm">
<rect x="-7.54" y="-5" width="53.18" height="50.64" fill="rgb(255,255,255)" />
<defs><pattern id="grid-sub-pattern" width="1.27" height="1.27" patternUnits="userSpaceOnUse"><line x1="0" y1="0" x2="1.27" y2="0" stroke="rgb(240,240,240)" stroke-width="0.05" /><line x1="0" y1="0" x2="0" y2="1.27" stroke="rgb(240,240,240)" stroke-width="0.05" /></pattern><pattern id="grid-pattern" width="2.54" height="2.54" patternUnits="userSpaceOnUse"><rect width="2.54" height="2.54" fill="url(#grid-sub-pattern)" /><line x1="0" y1="0" x2="2.54" y2="0" stroke="rgb(220,220,220)" stroke-width="0.1" /><line x1="0" y1="0" x2="0" y2="2.54" stroke="rgb(220,220,220)" stroke-width="0.1" /></pattern></defs><rect x="-19.1516" y="-12.7" width="135.0772" height="128.6256" fill="url(#grid-pattern)" />
<line x1="10.16" y1="20.32" x2="5.08" y2="20.32" stroke="rgb(0,100,0)" stroke-width="0.25" stroke-linecap="round" />
<line x1="5.08" y1="20.32" x2="5.08" y2="12.7" stroke="rgb(0,100,0)" stroke-width="0.25" stroke-linecap="round" />
<line x1="5.08" y1="12.7" x2="0" y2="12.7" stroke="rgb(0,100,0)" stroke-width="0.25" stroke-linecap="round" />
<line x1="0" y1="12.7" x2="0" y2="17.78" stroke="rgb(0,100,0)" stroke-width="0.25" stroke-linecap="round" />
<line x1="38.1" y1="10.16" x2="38.1" y2="17.78" stroke="rgb(0,100,0)" stroke-width="0.25" stroke-linecap="round" />
<line x1="15.24" y1="22.86" x2="15.24" y2="25.4" stroke="rgb(0,100,0)" stroke-width="0.25" stroke-linecap="round" />
<line x1="15.24" y1="10.16" x2="15.24" y2="17.78" stroke="rgb(0,100,0)" stroke-width="0.25" stroke-linecap="round" />
<line x1="15.24" y1="17.78" x2="15.24" y2="12.7" stroke="rgb(0,100,0)" stroke-width="0.25" stroke-linecap="round" />
<line x1="15.24" y1="12.7" x2="30.48" y2="12.7" stroke="rgb(0,100,0)" stroke-width="0.25" stroke-linecap="round" />
<line x1="30.48" y1="12.7" x2="30.48" y2="20.32" stroke="rgb(0,100,0)" stroke-width="0.25" stroke-linecap="round" />
<line x1="30.48" y1="20.32" x2="33.02" y2="20.32" stroke="rgb(0,100,0)" stroke-width="0.25" stroke-linecap="round" />
<line x1="0" y1="22.86" x2="0" y2="33.02" stroke="rgb(0,100,0)" stroke-width="0.25" stroke-linecap="round" />
<line x1="0" y1="33.02" x2="33.02" y2="33.02" stroke="rgb(0,100,0)" stroke-width="0.25" stroke-linecap="round" />
<line x1="33.02" y1="33.02" x2="33.02" y2="25.4" stroke="rgb(0,100,0)" stroke-width="0.25" stroke-linecap="round" />
<line x1="33.02" y1="25.4" x2="38.1" y2="25.4" stroke="rgb(0,100,0)" stroke-width="0.25" stroke-linecap="round" />
<line x1="38.1" y1="25.4" x2="38.1" y2="22.86" stroke="rgb(0,100,0)" stroke-width="0.25" stroke-linecap="round" />
<line x1="38.1" y1="22.86" x2="38.1" y2="30.48" stroke="rgb(0,100,0)" stroke-width="0.25" stroke-linecap="round" />
<circle cx="15.24" cy="12.7" r="0.4" fill="rgb(0,0,0)" />
<circle cx="38.1" cy="25.4" r="0.4" fill="rgb(0,0,0)" />
<circle cx="14.224" cy="20.32" r="2.54" fill="none" stroke="rgb(0,0,0)" stroke-width="0.25" />
<line x1="13.208" y1="18.923" x2="13.208" y2="21.717" stroke="rgb(0,0,0)" stroke-width="0.25" stroke-linecap="round" />
<line x1="11.43" y1="20.32" x2="13.208" y2="20.32" stroke="rgb(0,0,0)" stroke-width="0.25" stroke-linecap="round" />
<line x1="13.208" y1="19.685" x2="15.24" y2="17.78" stroke="rgb(0,0,0)" stroke-width="0.25" stroke-linecap="round" />
<line x1="13.208" y1="20.955" x2="15.24" y2="22.86" stroke="rgb(0,0,0)" stroke-width="0.25" stroke-linecap="round" />
<polygon points="13.6728,22.1564 15.019,22.6517 14.4374,21.3411" fill="rgb(0,0,0)" stroke-linecap="round" stroke-linejoin="round" />
<line x1="11.43" y1="20.32" x2="10.16" y2="20.32" stroke="rgb(0,0,0)" stroke-width="0.2" />
<text x="11.049" y="19.52" font-size="1" fill="rgb(0,0,0)" text-anchor="middle" font-family="sans-serif">B</text>

<text x="16.04" y="17.78" font-size="1" fill="rgb(0,0,0)" text-anchor="start" font-family="sans-serif">C</text>

<text x="16.04" y="22.86" font-size="1" fill="rgb(0,0,0)" text-anchor="start" font-family="sans-serif">E</text>
<text x="14.224" y="16.891" font-size="1.27" fill="rgb(0,0,0)" text-anchor="middle" font-family="sans-serif">Q1</text>
<circle cx="37.084" cy="20.32" r="2.54" fill="none" stroke="rgb(0,0,0)" stroke-width="0.25" />
<line x1="36.068" y1="18.923" x2="36.068" y2="21.717" stroke="rgb(0,0,0)" stroke-width="0.25" stroke-linecap="round" />
<line x1="34.29" y1="20.32" x2="36.068" y2="20.32" stroke="rgb(0,0,0)" stroke-width="0.25" stroke-linecap="round" />
<line x1="36.068" y1="19.685" x2="38.1" y2="17.78" stroke="rgb(0,0,0)" stroke-width="0.25" stroke-linecap="round" />
<line x1="36.068" y1="20.955" x2="38.1" y2="22.86" stroke="rgb(0,0,0)" stroke-width="0.25" stroke-linecap="round" />
<polygon points="36.5328,22.1564 37.879,22.6517 37.2974,21.3411" fill="rgb(0,0,0)" stroke-linecap="round" stroke-linejoin="round" />
<line x1="34.29" y1="20.32" x2="33.02" y2="20.32" stroke="rgb(0,0,0)" stroke-width="0.2" />
<text x="33.909" y="19.52" font-size="1" fill="rgb(0,0,0)" text-anchor="middle" font-family="sans-serif">B</text>

<text x="38.9" y="17.78" font-size="1" fill="rgb(0,0,0)" text-anchor="start" font-family="sans-serif">C</text>

<text x="38.9" y="22.86" font-size="1" fill="rgb(0,0,0)" text-anchor="start" font-family="sans-serif">E</text>
<text x="37.084" y="16.891" font-size="1.27" fill="rgb(0,0,0)" text-anchor="middle" font-family="sans-serif">Q2</text>
<polyline points="15.24,5.08 15.24,6.35 14.605,6.5608 15.875,6.985 14.605,7.4092 15.875,7.8308 14.605,8.255 15.875,8.6792 15.24,8.89 15.24,10.16" fill="none" stroke="rgb(0,0,0)" stroke-width="0.25" stroke-linecap="round" stroke-linejoin="round" />
<text x="16.764" y="7.62" font-size="1.27" fill="rgb(0,0,0)" text-anchor="middle" font-family="sans-serif">RC1</text>
<polyline points="38.1,5.08 38.1,6.35 37.465,6.5608 38.735,6.985 37.465,7.4092 38.735,7.8308 37.465,8.255 38.735,8.6792 38.1,8.89 38.1,10.16" fill="none" stroke="rgb(0,0,0)" stroke-width="0.25" stroke-linecap="round" stroke-linejoin="round" />
<text x="39.624" y="7.62" font-size="1.27" fill="rgb(0,0,0)" text-anchor="middle" font-family="sans-serif">RC2</text>
<polyline points="0,17.78 0,19.05 -0.635,19.2608 0.635,19.685 -0.635,20.1092 0.635,20.5308 -0.635,20.955 0.635,21.3792 0,21.59 0,22.86" fill="none" stroke="rgb(0,0,0)" stroke-width="0.25" stroke-linecap="round" stroke-linejoin="round" />
<text x="1.524" y="20.32" font-size="1.27" fill="rgb(0,0,0)" text-anchor="middle" font-family="sans-serif">Rb</text>
<polyline points="38.1,30.48 38.1,31.75 37.465,31.9608 38.735,32.385 37.465,32.8092 38.735,33.2308 37.465,33.655 38.735,34.0792 38.1,34.29 38.1,35.56" fill="none" stroke="rgb(0,0,0)" stroke-width="0.25" stroke-linecap="round" stroke-linejoin="round" />
<text x="39.624" y="33.02" font-size="1.27" fill="rgb(0,0,0)" text-anchor="middle" font-family="sans-serif">RE2</text>
<line x1="15.24" y1="2.54" x2="15.24" y2="5.08" stroke="rgb(0,0,0)" stroke-width="0.25" stroke-linecap="round" />
<line x1="14.478" y1="2.54" x2="16.002" y2="2.54" stroke="rgb(0,0,0)" stroke-width="0.25" stroke-linecap="round" />
<text x="15.24" y="1.651" font-size="1.27" fill="rgb(0,0,0)" text-anchor="middle" font-family="sans-serif">VCC1</text>
<line x1="38.1" y1="2.54" x2="38.1" y2="5.08" stroke="rgb(0,0,0)" stroke-width="0.25" stroke-linecap="round" />
<line x1="37.338" y1="2.54" x2="38.862" y2="2.54" stroke="rgb(0,0,0)" stroke-width="0.25" stroke-linecap="round" />
<text x="38.1" y="1.651" font-size="1.27" fill="rgb(0,0,0)" text-anchor="middle" font-family="sans-serif">VCC2</text>
<line x1="15.24" y1="25.4" x2="15.24" y2="27.94" stroke="rgb(0,0,0)" stroke-width="0.25" stroke-linecap="round" />
<line x1="14.478" y1="27.94" x2="16.002" y2="27.94" stroke="rgb(0,0,0)" stroke-width="0.25" stroke-linecap="round" />
<line x1="14.732" y1="28.321" x2="15.748" y2="28.321" stroke="rgb(0,0,0)" stroke-width="0.25" stroke-linecap="round" />
<line x1="14.986" y1="28.702" x2="15.494" y2="28.702" stroke="rgb(0,0,0)" stroke-width="0.25" stroke-linecap="round" />
<text x="15.24" y="30.099" font-size="1.27" fill="rgb(0,0,0)" text-anchor="middle" font-family="sans-serif">GND1</text>
<line x1="38.1" y1="35.56" x2="38.1" y2="38.1" stroke="rgb(0,0,0)" stroke-width="0.25" stroke-linecap="round" />
<line x1="37.338" y1="38.1" x2="38.862" y2="38.1" stroke="rgb(0,0,0)" stroke-width="0.25" stroke-linecap="round" />
<line x1="37.592" y1="38.481" x2="38.608" y2="38.481" stroke="rgb(0,0,0)" stroke-width="0.25" stroke-linecap="round" />
<line x1="37.846" y1="38.862" x2="38.354" y2="38.862" stroke="rgb(0,0,0)" stroke-width="0.25" stroke-linecap="round" />
<text x="38.1" y="40.259" font-size="1.27" fill="rgb(0,0,0)" text-anchor="middle" font-family="sans-serif">GND2</text>
</svg>